<?xml version="1.0" standalone="no"?>
<!-- vdw(2,3,5) ?? 31 -->
<!-- sat: -->
<!-- 2232333323 3233331223 2333233233 3 -->
<!-- finished in 0.001 seconds -->
<svg height="100" width="140"
   xmlns:svg="http://www.w3.org/2000/svg"
   xmlns="http://www.w3.org/2000/svg">
<rect y="0" x="0" width="20" height="20"
      style="fill:#800000;fill-opacity:1;stroke:#000000;stroke-width:1;stroke-opacity:1" />
<rect y="0" x="20" width="20" height="20"
      style="fill:#800000;fill-opacity:1;stroke:#000000;stroke-width:1;stroke-opacity:1" />
<rect y="0" x="40" width="20" height="20"
      style="fill:#008000;fill-opacity:1;stroke:#000000;stroke-width:1;stroke-opacity:1" />
<rect y="0" x="60" width="20" height="20"
      style="fill:#800000;fill-opacity:1;stroke:#000000;stroke-width:1;stroke-opacity:1" />
<rect y="0" x="80" width="20" height="20"
      style="fill:#008000;fill-opacity:1;stroke:#000000;stroke-width:1;stroke-opacity:1" />
<rect y="0" x="100" width="20" height="20"
      style="fill:#008000;fill-opacity:1;stroke:#000000;stroke-width:1;stroke-opacity:1" />
<rect y="0" x="120" width="20" height="20"
      style="fill:#008000;fill-opacity:1;stroke:#000000;stroke-width:1;stroke-opacity:1" />
<rect y="20" x="0" width="20" height="20"
      style="fill:#008000;fill-opacity:1;stroke:#000000;stroke-width:1;stroke-opacity:1" />
<rect y="20" x="20" width="20" height="20"
      style="fill:#800000;fill-opacity:1;stroke:#000000;stroke-width:1;stroke-opacity:1" />
<rect y="20" x="40" width="20" height="20"
      style="fill:#008000;fill-opacity:1;stroke:#000000;stroke-width:1;stroke-opacity:1" />
<rect y="20" x="60" width="20" height="20"
      style="fill:#008000;fill-opacity:1;stroke:#000000;stroke-width:1;stroke-opacity:1" />
<rect y="20" x="80" width="20" height="20"
      style="fill:#800000;fill-opacity:1;stroke:#000000;stroke-width:1;stroke-opacity:1" />
<rect y="20" x="100" width="20" height="20"
      style="fill:#008000;fill-opacity:1;stroke:#000000;stroke-width:1;stroke-opacity:1" />
<rect y="20" x="120" width="20" height="20"
      style="fill:#008000;fill-opacity:1;stroke:#000000;stroke-width:1;stroke-opacity:1" />
<rect y="40" x="0" width="20" height="20"
      style="fill:#008000;fill-opacity:1;stroke:#000000;stroke-width:1;stroke-opacity:1" />
<rect y="40" x="20" width="20" height="20"
      style="fill:#008000;fill-opacity:1;stroke:#000000;stroke-width:1;stroke-opacity:1" />
<rect y="40" x="40" width="20" height="20"
      style="fill:#ffd42a;fill-opacity:1;stroke:#000000;stroke-width:1;stroke-opacity:1" />
<rect y="40" x="60" width="20" height="20"
      style="fill:#800000;fill-opacity:1;stroke:#000000;stroke-width:1;stroke-opacity:1" />
<rect y="40" x="80" width="20" height="20"
      style="fill:#800000;fill-opacity:1;stroke:#000000;stroke-width:1;stroke-opacity:1" />
<rect y="40" x="100" width="20" height="20"
      style="fill:#008000;fill-opacity:1;stroke:#000000;stroke-width:1;stroke-opacity:1" />
<rect y="40" x="120" width="20" height="20"
      style="fill:#800000;fill-opacity:1;stroke:#000000;stroke-width:1;stroke-opacity:1" />
<rect y="60" x="0" width="20" height="20"
      style="fill:#008000;fill-opacity:1;stroke:#000000;stroke-width:1;stroke-opacity:1" />
<rect y="60" x="20" width="20" height="20"
      style="fill:#008000;fill-opacity:1;stroke:#000000;stroke-width:1;stroke-opacity:1" />
<rect y="60" x="40" width="20" height="20"
      style="fill:#008000;fill-opacity:1;stroke:#000000;stroke-width:1;stroke-opacity:1" />
<rect y="60" x="60" width="20" height="20"
      style="fill:#800000;fill-opacity:1;stroke:#000000;stroke-width:1;stroke-opacity:1" />
<rect y="60" x="80" width="20" height="20"
      style="fill:#008000;fill-opacity:1;stroke:#000000;stroke-width:1;stroke-opacity:1" />
<rect y="60" x="100" width="20" height="20"
      style="fill:#008000;fill-opacity:1;stroke:#000000;stroke-width:1;stroke-opacity:1" />
<rect y="60" x="120" width="20" height="20"
      style="fill:#800000;fill-opacity:1;stroke:#000000;stroke-width:1;stroke-opacity:1" />
<rect y="80" x="0" width="20" height="20"
      style="fill:#008000;fill-opacity:1;stroke:#000000;stroke-width:1;stroke-opacity:1" />
<rect y="80" x="20" width="20" height="20"
      style="fill:#008000;fill-opacity:1;stroke:#000000;stroke-width:1;stroke-opacity:1" />
<rect y="80" x="40" width="20" height="20"
      style="fill:#008000;fill-opacity:1;stroke:#000000;stroke-width:1;stroke-opacity:1" />
</svg>
