<?xml version="1.0" standalone="no"?>
<!-- vdw(3,6) ?? 31 -->
<!-- sat: -->
<!-- 1122221212 2221122122 2221122222 1 -->
<!-- finished in 0.000 seconds -->
<svg height="50" width="310"
   xmlns:svg="http://www.w3.org/2000/svg"
   xmlns="http://www.w3.org/2000/svg">
<rect y="0" x="0" width="10" height="50"
      style="fill:#800000;fill-opacity:1;stroke:#000000;stroke-width:1;stroke-opacity:1" />
<rect y="0" x="10" width="10" height="50"
      style="fill:#800000;fill-opacity:1;stroke:#000000;stroke-width:1;stroke-opacity:1" />
<rect y="0" x="20" width="10" height="50"
      style="fill:#008000;fill-opacity:1;stroke:#000000;stroke-width:1;stroke-opacity:1" />
<rect y="0" x="30" width="10" height="50"
      style="fill:#008000;fill-opacity:1;stroke:#000000;stroke-width:1;stroke-opacity:1" />
<rect y="0" x="40" width="10" height="50"
      style="fill:#008000;fill-opacity:1;stroke:#000000;stroke-width:1;stroke-opacity:1" />
<rect y="0" x="50" width="10" height="50"
      style="fill:#008000;fill-opacity:1;stroke:#000000;stroke-width:1;stroke-opacity:1" />
<rect y="0" x="60" width="10" height="50"
      style="fill:#800000;fill-opacity:1;stroke:#000000;stroke-width:1;stroke-opacity:1" />
<rect y="0" x="70" width="10" height="50"
      style="fill:#008000;fill-opacity:1;stroke:#000000;stroke-width:1;stroke-opacity:1" />
<rect y="0" x="80" width="10" height="50"
      style="fill:#800000;fill-opacity:1;stroke:#000000;stroke-width:1;stroke-opacity:1" />
<rect y="0" x="90" width="10" height="50"
      style="fill:#008000;fill-opacity:1;stroke:#000000;stroke-width:1;stroke-opacity:1" />
<rect y="0" x="100" width="10" height="50"
      style="fill:#008000;fill-opacity:1;stroke:#000000;stroke-width:1;stroke-opacity:1" />
<rect y="0" x="110" width="10" height="50"
      style="fill:#008000;fill-opacity:1;stroke:#000000;stroke-width:1;stroke-opacity:1" />
<rect y="0" x="120" width="10" height="50"
      style="fill:#008000;fill-opacity:1;stroke:#000000;stroke-width:1;stroke-opacity:1" />
<rect y="0" x="130" width="10" height="50"
      style="fill:#800000;fill-opacity:1;stroke:#000000;stroke-width:1;stroke-opacity:1" />
<rect y="0" x="140" width="10" height="50"
      style="fill:#800000;fill-opacity:1;stroke:#000000;stroke-width:1;stroke-opacity:1" />
<rect y="0" x="150" width="10" height="50"
      style="fill:#008000;fill-opacity:1;stroke:#000000;stroke-width:1;stroke-opacity:1" />
<rect y="0" x="160" width="10" height="50"
      style="fill:#008000;fill-opacity:1;stroke:#000000;stroke-width:1;stroke-opacity:1" />
<rect y="0" x="170" width="10" height="50"
      style="fill:#800000;fill-opacity:1;stroke:#000000;stroke-width:1;stroke-opacity:1" />
<rect y="0" x="180" width="10" height="50"
      style="fill:#008000;fill-opacity:1;stroke:#000000;stroke-width:1;stroke-opacity:1" />
<rect y="0" x="190" width="10" height="50"
      style="fill:#008000;fill-opacity:1;stroke:#000000;stroke-width:1;stroke-opacity:1" />
<rect y="0" x="200" width="10" height="50"
      style="fill:#008000;fill-opacity:1;stroke:#000000;stroke-width:1;stroke-opacity:1" />
<rect y="0" x="210" width="10" height="50"
      style="fill:#008000;fill-opacity:1;stroke:#000000;stroke-width:1;stroke-opacity:1" />
<rect y="0" x="220" width="10" height="50"
      style="fill:#008000;fill-opacity:1;stroke:#000000;stroke-width:1;stroke-opacity:1" />
<rect y="0" x="230" width="10" height="50"
      style="fill:#800000;fill-opacity:1;stroke:#000000;stroke-width:1;stroke-opacity:1" />
<rect y="0" x="240" width="10" height="50"
      style="fill:#800000;fill-opacity:1;stroke:#000000;stroke-width:1;stroke-opacity:1" />
<rect y="0" x="250" width="10" height="50"
      style="fill:#008000;fill-opacity:1;stroke:#000000;stroke-width:1;stroke-opacity:1" />
<rect y="0" x="260" width="10" height="50"
      style="fill:#008000;fill-opacity:1;stroke:#000000;stroke-width:1;stroke-opacity:1" />
<rect y="0" x="270" width="10" height="50"
      style="fill:#008000;fill-opacity:1;stroke:#000000;stroke-width:1;stroke-opacity:1" />
<rect y="0" x="280" width="10" height="50"
      style="fill:#008000;fill-opacity:1;stroke:#000000;stroke-width:1;stroke-opacity:1" />
<rect y="0" x="290" width="10" height="50"
      style="fill:#008000;fill-opacity:1;stroke:#000000;stroke-width:1;stroke-opacity:1" />
<rect y="0" x="300" width="10" height="50"
      style="fill:#800000;fill-opacity:1;stroke:#000000;stroke-width:1;stroke-opacity:1" />
</svg>
