<?xml version="1.0" standalone="no"?>
<!-- vdw(2,2,2,3,5) ?? 43 -->
<!-- sat: -->
<!-- 1554454555 4544255554 5555455553 4454555454 455 -->
<!-- finished in 1 seconds -->
<svg height="50" width="430"
   xmlns:svg="http://www.w3.org/2000/svg"
   xmlns="http://www.w3.org/2000/svg">
<rect y="0" x="0" width="10" height="50"
      style="fill:#9955FF;fill-opacity:1;stroke:#000000;stroke-width:1;stroke-opacity:1" />
<rect y="0" x="10" width="10" height="50"
      style="fill:#008000;fill-opacity:1;stroke:#000000;stroke-width:1;stroke-opacity:1" />
<rect y="0" x="20" width="10" height="50"
      style="fill:#008000;fill-opacity:1;stroke:#000000;stroke-width:1;stroke-opacity:1" />
<rect y="0" x="30" width="10" height="50"
      style="fill:#800000;fill-opacity:1;stroke:#000000;stroke-width:1;stroke-opacity:1" />
<rect y="0" x="40" width="10" height="50"
      style="fill:#800000;fill-opacity:1;stroke:#000000;stroke-width:1;stroke-opacity:1" />
<rect y="0" x="50" width="10" height="50"
      style="fill:#008000;fill-opacity:1;stroke:#000000;stroke-width:1;stroke-opacity:1" />
<rect y="0" x="60" width="10" height="50"
      style="fill:#800000;fill-opacity:1;stroke:#000000;stroke-width:1;stroke-opacity:1" />
<rect y="0" x="70" width="10" height="50"
      style="fill:#008000;fill-opacity:1;stroke:#000000;stroke-width:1;stroke-opacity:1" />
<rect y="0" x="80" width="10" height="50"
      style="fill:#008000;fill-opacity:1;stroke:#000000;stroke-width:1;stroke-opacity:1" />
<rect y="0" x="90" width="10" height="50"
      style="fill:#008000;fill-opacity:1;stroke:#000000;stroke-width:1;stroke-opacity:1" />
<rect y="0" x="100" width="10" height="50"
      style="fill:#800000;fill-opacity:1;stroke:#000000;stroke-width:1;stroke-opacity:1" />
<rect y="0" x="110" width="10" height="50"
      style="fill:#008000;fill-opacity:1;stroke:#000000;stroke-width:1;stroke-opacity:1" />
<rect y="0" x="120" width="10" height="50"
      style="fill:#800000;fill-opacity:1;stroke:#000000;stroke-width:1;stroke-opacity:1" />
<rect y="0" x="130" width="10" height="50"
      style="fill:#800000;fill-opacity:1;stroke:#000000;stroke-width:1;stroke-opacity:1" />
<rect y="0" x="140" width="10" height="50"
      style="fill:#0000AA;fill-opacity:1;stroke:#000000;stroke-width:1;stroke-opacity:1" />
<rect y="0" x="150" width="10" height="50"
      style="fill:#008000;fill-opacity:1;stroke:#000000;stroke-width:1;stroke-opacity:1" />
<rect y="0" x="160" width="10" height="50"
      style="fill:#008000;fill-opacity:1;stroke:#000000;stroke-width:1;stroke-opacity:1" />
<rect y="0" x="170" width="10" height="50"
      style="fill:#008000;fill-opacity:1;stroke:#000000;stroke-width:1;stroke-opacity:1" />
<rect y="0" x="180" width="10" height="50"
      style="fill:#008000;fill-opacity:1;stroke:#000000;stroke-width:1;stroke-opacity:1" />
<rect y="0" x="190" width="10" height="50"
      style="fill:#800000;fill-opacity:1;stroke:#000000;stroke-width:1;stroke-opacity:1" />
<rect y="0" x="200" width="10" height="50"
      style="fill:#008000;fill-opacity:1;stroke:#000000;stroke-width:1;stroke-opacity:1" />
<rect y="0" x="210" width="10" height="50"
      style="fill:#008000;fill-opacity:1;stroke:#000000;stroke-width:1;stroke-opacity:1" />
<rect y="0" x="220" width="10" height="50"
      style="fill:#008000;fill-opacity:1;stroke:#000000;stroke-width:1;stroke-opacity:1" />
<rect y="0" x="230" width="10" height="50"
      style="fill:#008000;fill-opacity:1;stroke:#000000;stroke-width:1;stroke-opacity:1" />
<rect y="0" x="240" width="10" height="50"
      style="fill:#800000;fill-opacity:1;stroke:#000000;stroke-width:1;stroke-opacity:1" />
<rect y="0" x="250" width="10" height="50"
      style="fill:#008000;fill-opacity:1;stroke:#000000;stroke-width:1;stroke-opacity:1" />
<rect y="0" x="260" width="10" height="50"
      style="fill:#008000;fill-opacity:1;stroke:#000000;stroke-width:1;stroke-opacity:1" />
<rect y="0" x="270" width="10" height="50"
      style="fill:#008000;fill-opacity:1;stroke:#000000;stroke-width:1;stroke-opacity:1" />
<rect y="0" x="280" width="10" height="50"
      style="fill:#008000;fill-opacity:1;stroke:#000000;stroke-width:1;stroke-opacity:1" />
<rect y="0" x="290" width="10" height="50"
      style="fill:#ffd42a;fill-opacity:1;stroke:#000000;stroke-width:1;stroke-opacity:1" />
<rect y="0" x="300" width="10" height="50"
      style="fill:#800000;fill-opacity:1;stroke:#000000;stroke-width:1;stroke-opacity:1" />
<rect y="0" x="310" width="10" height="50"
      style="fill:#800000;fill-opacity:1;stroke:#000000;stroke-width:1;stroke-opacity:1" />
<rect y="0" x="320" width="10" height="50"
      style="fill:#008000;fill-opacity:1;stroke:#000000;stroke-width:1;stroke-opacity:1" />
<rect y="0" x="330" width="10" height="50"
      style="fill:#800000;fill-opacity:1;stroke:#000000;stroke-width:1;stroke-opacity:1" />
<rect y="0" x="340" width="10" height="50"
      style="fill:#008000;fill-opacity:1;stroke:#000000;stroke-width:1;stroke-opacity:1" />
<rect y="0" x="350" width="10" height="50"
      style="fill:#008000;fill-opacity:1;stroke:#000000;stroke-width:1;stroke-opacity:1" />
<rect y="0" x="360" width="10" height="50"
      style="fill:#008000;fill-opacity:1;stroke:#000000;stroke-width:1;stroke-opacity:1" />
<rect y="0" x="370" width="10" height="50"
      style="fill:#800000;fill-opacity:1;stroke:#000000;stroke-width:1;stroke-opacity:1" />
<rect y="0" x="380" width="10" height="50"
      style="fill:#008000;fill-opacity:1;stroke:#000000;stroke-width:1;stroke-opacity:1" />
<rect y="0" x="390" width="10" height="50"
      style="fill:#800000;fill-opacity:1;stroke:#000000;stroke-width:1;stroke-opacity:1" />
<rect y="0" x="400" width="10" height="50"
      style="fill:#800000;fill-opacity:1;stroke:#000000;stroke-width:1;stroke-opacity:1" />
<rect y="0" x="410" width="10" height="50"
      style="fill:#008000;fill-opacity:1;stroke:#000000;stroke-width:1;stroke-opacity:1" />
<rect y="0" x="420" width="10" height="50"
      style="fill:#008000;fill-opacity:1;stroke:#000000;stroke-width:1;stroke-opacity:1" />
</svg>
