<?xml version="1.0" standalone="no"?>
<!-- vdw(2,2,3,7) ?? 64 -->
<!-- sat: -->
<!-- 4434443444 4443343344 1444444343 4444343444 4442443343 -->
<!-- 3444444344 4344 -->
<!-- finished in 75 seconds -->
<svg height="160" width="180"
   xmlns:svg="http://www.w3.org/2000/svg"
   xmlns="http://www.w3.org/2000/svg">
<rect y="0" x="0" width="20" height="20"
      style="fill:#008000;fill-opacity:1;stroke:#000000;stroke-width:1;stroke-opacity:1" />
<rect y="0" x="20" width="20" height="20"
      style="fill:#008000;fill-opacity:1;stroke:#000000;stroke-width:1;stroke-opacity:1" />
<rect y="0" x="40" width="20" height="20"
      style="fill:#800000;fill-opacity:1;stroke:#000000;stroke-width:1;stroke-opacity:1" />
<rect y="0" x="60" width="20" height="20"
      style="fill:#008000;fill-opacity:1;stroke:#000000;stroke-width:1;stroke-opacity:1" />
<rect y="0" x="80" width="20" height="20"
      style="fill:#008000;fill-opacity:1;stroke:#000000;stroke-width:1;stroke-opacity:1" />
<rect y="0" x="100" width="20" height="20"
      style="fill:#008000;fill-opacity:1;stroke:#000000;stroke-width:1;stroke-opacity:1" />
<rect y="0" x="120" width="20" height="20"
      style="fill:#800000;fill-opacity:1;stroke:#000000;stroke-width:1;stroke-opacity:1" />
<rect y="0" x="140" width="20" height="20"
      style="fill:#008000;fill-opacity:1;stroke:#000000;stroke-width:1;stroke-opacity:1" />
<rect y="0" x="160" width="20" height="20"
      style="fill:#008000;fill-opacity:1;stroke:#000000;stroke-width:1;stroke-opacity:1" />
<rect y="20" x="0" width="20" height="20"
      style="fill:#008000;fill-opacity:1;stroke:#000000;stroke-width:1;stroke-opacity:1" />
<rect y="20" x="20" width="20" height="20"
      style="fill:#008000;fill-opacity:1;stroke:#000000;stroke-width:1;stroke-opacity:1" />
<rect y="20" x="40" width="20" height="20"
      style="fill:#008000;fill-opacity:1;stroke:#000000;stroke-width:1;stroke-opacity:1" />
<rect y="20" x="60" width="20" height="20"
      style="fill:#008000;fill-opacity:1;stroke:#000000;stroke-width:1;stroke-opacity:1" />
<rect y="20" x="80" width="20" height="20"
      style="fill:#800000;fill-opacity:1;stroke:#000000;stroke-width:1;stroke-opacity:1" />
<rect y="20" x="100" width="20" height="20"
      style="fill:#800000;fill-opacity:1;stroke:#000000;stroke-width:1;stroke-opacity:1" />
<rect y="20" x="120" width="20" height="20"
      style="fill:#008000;fill-opacity:1;stroke:#000000;stroke-width:1;stroke-opacity:1" />
<rect y="20" x="140" width="20" height="20"
      style="fill:#800000;fill-opacity:1;stroke:#000000;stroke-width:1;stroke-opacity:1" />
<rect y="20" x="160" width="20" height="20"
      style="fill:#800000;fill-opacity:1;stroke:#000000;stroke-width:1;stroke-opacity:1" />
<rect y="40" x="0" width="20" height="20"
      style="fill:#008000;fill-opacity:1;stroke:#000000;stroke-width:1;stroke-opacity:1" />
<rect y="40" x="20" width="20" height="20"
      style="fill:#008000;fill-opacity:1;stroke:#000000;stroke-width:1;stroke-opacity:1" />
<rect y="40" x="40" width="20" height="20"
      style="fill:#0000AA;fill-opacity:1;stroke:#000000;stroke-width:1;stroke-opacity:1" />
<rect y="40" x="60" width="20" height="20"
      style="fill:#008000;fill-opacity:1;stroke:#000000;stroke-width:1;stroke-opacity:1" />
<rect y="40" x="80" width="20" height="20"
      style="fill:#008000;fill-opacity:1;stroke:#000000;stroke-width:1;stroke-opacity:1" />
<rect y="40" x="100" width="20" height="20"
      style="fill:#008000;fill-opacity:1;stroke:#000000;stroke-width:1;stroke-opacity:1" />
<rect y="40" x="120" width="20" height="20"
      style="fill:#008000;fill-opacity:1;stroke:#000000;stroke-width:1;stroke-opacity:1" />
<rect y="40" x="140" width="20" height="20"
      style="fill:#008000;fill-opacity:1;stroke:#000000;stroke-width:1;stroke-opacity:1" />
<rect y="40" x="160" width="20" height="20"
      style="fill:#008000;fill-opacity:1;stroke:#000000;stroke-width:1;stroke-opacity:1" />
<rect y="60" x="0" width="20" height="20"
      style="fill:#800000;fill-opacity:1;stroke:#000000;stroke-width:1;stroke-opacity:1" />
<rect y="60" x="20" width="20" height="20"
      style="fill:#008000;fill-opacity:1;stroke:#000000;stroke-width:1;stroke-opacity:1" />
<rect y="60" x="40" width="20" height="20"
      style="fill:#800000;fill-opacity:1;stroke:#000000;stroke-width:1;stroke-opacity:1" />
<rect y="60" x="60" width="20" height="20"
      style="fill:#008000;fill-opacity:1;stroke:#000000;stroke-width:1;stroke-opacity:1" />
<rect y="60" x="80" width="20" height="20"
      style="fill:#008000;fill-opacity:1;stroke:#000000;stroke-width:1;stroke-opacity:1" />
<rect y="60" x="100" width="20" height="20"
      style="fill:#008000;fill-opacity:1;stroke:#000000;stroke-width:1;stroke-opacity:1" />
<rect y="60" x="120" width="20" height="20"
      style="fill:#008000;fill-opacity:1;stroke:#000000;stroke-width:1;stroke-opacity:1" />
<rect y="60" x="140" width="20" height="20"
      style="fill:#800000;fill-opacity:1;stroke:#000000;stroke-width:1;stroke-opacity:1" />
<rect y="60" x="160" width="20" height="20"
      style="fill:#008000;fill-opacity:1;stroke:#000000;stroke-width:1;stroke-opacity:1" />
<rect y="80" x="0" width="20" height="20"
      style="fill:#800000;fill-opacity:1;stroke:#000000;stroke-width:1;stroke-opacity:1" />
<rect y="80" x="20" width="20" height="20"
      style="fill:#008000;fill-opacity:1;stroke:#000000;stroke-width:1;stroke-opacity:1" />
<rect y="80" x="40" width="20" height="20"
      style="fill:#008000;fill-opacity:1;stroke:#000000;stroke-width:1;stroke-opacity:1" />
<rect y="80" x="60" width="20" height="20"
      style="fill:#008000;fill-opacity:1;stroke:#000000;stroke-width:1;stroke-opacity:1" />
<rect y="80" x="80" width="20" height="20"
      style="fill:#008000;fill-opacity:1;stroke:#000000;stroke-width:1;stroke-opacity:1" />
<rect y="80" x="100" width="20" height="20"
      style="fill:#008000;fill-opacity:1;stroke:#000000;stroke-width:1;stroke-opacity:1" />
<rect y="80" x="120" width="20" height="20"
      style="fill:#008000;fill-opacity:1;stroke:#000000;stroke-width:1;stroke-opacity:1" />
<rect y="80" x="140" width="20" height="20"
      style="fill:#ffd42a;fill-opacity:1;stroke:#000000;stroke-width:1;stroke-opacity:1" />
<rect y="80" x="160" width="20" height="20"
      style="fill:#008000;fill-opacity:1;stroke:#000000;stroke-width:1;stroke-opacity:1" />
<rect y="100" x="0" width="20" height="20"
      style="fill:#008000;fill-opacity:1;stroke:#000000;stroke-width:1;stroke-opacity:1" />
<rect y="100" x="20" width="20" height="20"
      style="fill:#800000;fill-opacity:1;stroke:#000000;stroke-width:1;stroke-opacity:1" />
<rect y="100" x="40" width="20" height="20"
      style="fill:#800000;fill-opacity:1;stroke:#000000;stroke-width:1;stroke-opacity:1" />
<rect y="100" x="60" width="20" height="20"
      style="fill:#008000;fill-opacity:1;stroke:#000000;stroke-width:1;stroke-opacity:1" />
<rect y="100" x="80" width="20" height="20"
      style="fill:#800000;fill-opacity:1;stroke:#000000;stroke-width:1;stroke-opacity:1" />
<rect y="100" x="100" width="20" height="20"
      style="fill:#800000;fill-opacity:1;stroke:#000000;stroke-width:1;stroke-opacity:1" />
<rect y="100" x="120" width="20" height="20"
      style="fill:#008000;fill-opacity:1;stroke:#000000;stroke-width:1;stroke-opacity:1" />
<rect y="100" x="140" width="20" height="20"
      style="fill:#008000;fill-opacity:1;stroke:#000000;stroke-width:1;stroke-opacity:1" />
<rect y="100" x="160" width="20" height="20"
      style="fill:#008000;fill-opacity:1;stroke:#000000;stroke-width:1;stroke-opacity:1" />
<rect y="120" x="0" width="20" height="20"
      style="fill:#008000;fill-opacity:1;stroke:#000000;stroke-width:1;stroke-opacity:1" />
<rect y="120" x="20" width="20" height="20"
      style="fill:#008000;fill-opacity:1;stroke:#000000;stroke-width:1;stroke-opacity:1" />
<rect y="120" x="40" width="20" height="20"
      style="fill:#008000;fill-opacity:1;stroke:#000000;stroke-width:1;stroke-opacity:1" />
<rect y="120" x="60" width="20" height="20"
      style="fill:#800000;fill-opacity:1;stroke:#000000;stroke-width:1;stroke-opacity:1" />
<rect y="120" x="80" width="20" height="20"
      style="fill:#008000;fill-opacity:1;stroke:#000000;stroke-width:1;stroke-opacity:1" />
<rect y="120" x="100" width="20" height="20"
      style="fill:#008000;fill-opacity:1;stroke:#000000;stroke-width:1;stroke-opacity:1" />
<rect y="120" x="120" width="20" height="20"
      style="fill:#008000;fill-opacity:1;stroke:#000000;stroke-width:1;stroke-opacity:1" />
<rect y="120" x="140" width="20" height="20"
      style="fill:#800000;fill-opacity:1;stroke:#000000;stroke-width:1;stroke-opacity:1" />
<rect y="120" x="160" width="20" height="20"
      style="fill:#008000;fill-opacity:1;stroke:#000000;stroke-width:1;stroke-opacity:1" />
<rect y="140" x="0" width="20" height="20"
      style="fill:#008000;fill-opacity:1;stroke:#000000;stroke-width:1;stroke-opacity:1" />
</svg>
