<?xml version="1.0" standalone="no"?>
<!-- vdw(2,4,6) ?? 82 -->
<!-- sat: -->
<!-- 3223223333 3232223333 2332333323 2212232333 2333323223 -->
<!-- 3332333222 3233332323 2233333233 33 -->
<!-- finished in 1155 seconds -->
<svg height="180" width="200"
   xmlns:svg="http://www.w3.org/2000/svg"
   xmlns="http://www.w3.org/2000/svg">
<rect y="0" x="0" width="20" height="20"
      style="fill:#008000;fill-opacity:1;stroke:#000000;stroke-width:1;stroke-opacity:1" />
<rect y="0" x="20" width="20" height="20"
      style="fill:#800000;fill-opacity:1;stroke:#000000;stroke-width:1;stroke-opacity:1" />
<rect y="0" x="40" width="20" height="20"
      style="fill:#800000;fill-opacity:1;stroke:#000000;stroke-width:1;stroke-opacity:1" />
<rect y="0" x="60" width="20" height="20"
      style="fill:#008000;fill-opacity:1;stroke:#000000;stroke-width:1;stroke-opacity:1" />
<rect y="0" x="80" width="20" height="20"
      style="fill:#800000;fill-opacity:1;stroke:#000000;stroke-width:1;stroke-opacity:1" />
<rect y="0" x="100" width="20" height="20"
      style="fill:#800000;fill-opacity:1;stroke:#000000;stroke-width:1;stroke-opacity:1" />
<rect y="0" x="120" width="20" height="20"
      style="fill:#008000;fill-opacity:1;stroke:#000000;stroke-width:1;stroke-opacity:1" />
<rect y="0" x="140" width="20" height="20"
      style="fill:#008000;fill-opacity:1;stroke:#000000;stroke-width:1;stroke-opacity:1" />
<rect y="0" x="160" width="20" height="20"
      style="fill:#008000;fill-opacity:1;stroke:#000000;stroke-width:1;stroke-opacity:1" />
<rect y="0" x="180" width="20" height="20"
      style="fill:#008000;fill-opacity:1;stroke:#000000;stroke-width:1;stroke-opacity:1" />
<rect y="20" x="0" width="20" height="20"
      style="fill:#008000;fill-opacity:1;stroke:#000000;stroke-width:1;stroke-opacity:1" />
<rect y="20" x="20" width="20" height="20"
      style="fill:#800000;fill-opacity:1;stroke:#000000;stroke-width:1;stroke-opacity:1" />
<rect y="20" x="40" width="20" height="20"
      style="fill:#008000;fill-opacity:1;stroke:#000000;stroke-width:1;stroke-opacity:1" />
<rect y="20" x="60" width="20" height="20"
      style="fill:#800000;fill-opacity:1;stroke:#000000;stroke-width:1;stroke-opacity:1" />
<rect y="20" x="80" width="20" height="20"
      style="fill:#800000;fill-opacity:1;stroke:#000000;stroke-width:1;stroke-opacity:1" />
<rect y="20" x="100" width="20" height="20"
      style="fill:#800000;fill-opacity:1;stroke:#000000;stroke-width:1;stroke-opacity:1" />
<rect y="20" x="120" width="20" height="20"
      style="fill:#008000;fill-opacity:1;stroke:#000000;stroke-width:1;stroke-opacity:1" />
<rect y="20" x="140" width="20" height="20"
      style="fill:#008000;fill-opacity:1;stroke:#000000;stroke-width:1;stroke-opacity:1" />
<rect y="20" x="160" width="20" height="20"
      style="fill:#008000;fill-opacity:1;stroke:#000000;stroke-width:1;stroke-opacity:1" />
<rect y="20" x="180" width="20" height="20"
      style="fill:#008000;fill-opacity:1;stroke:#000000;stroke-width:1;stroke-opacity:1" />
<rect y="40" x="0" width="20" height="20"
      style="fill:#800000;fill-opacity:1;stroke:#000000;stroke-width:1;stroke-opacity:1" />
<rect y="40" x="20" width="20" height="20"
      style="fill:#008000;fill-opacity:1;stroke:#000000;stroke-width:1;stroke-opacity:1" />
<rect y="40" x="40" width="20" height="20"
      style="fill:#008000;fill-opacity:1;stroke:#000000;stroke-width:1;stroke-opacity:1" />
<rect y="40" x="60" width="20" height="20"
      style="fill:#800000;fill-opacity:1;stroke:#000000;stroke-width:1;stroke-opacity:1" />
<rect y="40" x="80" width="20" height="20"
      style="fill:#008000;fill-opacity:1;stroke:#000000;stroke-width:1;stroke-opacity:1" />
<rect y="40" x="100" width="20" height="20"
      style="fill:#008000;fill-opacity:1;stroke:#000000;stroke-width:1;stroke-opacity:1" />
<rect y="40" x="120" width="20" height="20"
      style="fill:#008000;fill-opacity:1;stroke:#000000;stroke-width:1;stroke-opacity:1" />
<rect y="40" x="140" width="20" height="20"
      style="fill:#008000;fill-opacity:1;stroke:#000000;stroke-width:1;stroke-opacity:1" />
<rect y="40" x="160" width="20" height="20"
      style="fill:#800000;fill-opacity:1;stroke:#000000;stroke-width:1;stroke-opacity:1" />
<rect y="40" x="180" width="20" height="20"
      style="fill:#008000;fill-opacity:1;stroke:#000000;stroke-width:1;stroke-opacity:1" />
<rect y="60" x="0" width="20" height="20"
      style="fill:#800000;fill-opacity:1;stroke:#000000;stroke-width:1;stroke-opacity:1" />
<rect y="60" x="20" width="20" height="20"
      style="fill:#800000;fill-opacity:1;stroke:#000000;stroke-width:1;stroke-opacity:1" />
<rect y="60" x="40" width="20" height="20"
      style="fill:#ffd42a;fill-opacity:1;stroke:#000000;stroke-width:1;stroke-opacity:1" />
<rect y="60" x="60" width="20" height="20"
      style="fill:#800000;fill-opacity:1;stroke:#000000;stroke-width:1;stroke-opacity:1" />
<rect y="60" x="80" width="20" height="20"
      style="fill:#800000;fill-opacity:1;stroke:#000000;stroke-width:1;stroke-opacity:1" />
<rect y="60" x="100" width="20" height="20"
      style="fill:#008000;fill-opacity:1;stroke:#000000;stroke-width:1;stroke-opacity:1" />
<rect y="60" x="120" width="20" height="20"
      style="fill:#800000;fill-opacity:1;stroke:#000000;stroke-width:1;stroke-opacity:1" />
<rect y="60" x="140" width="20" height="20"
      style="fill:#008000;fill-opacity:1;stroke:#000000;stroke-width:1;stroke-opacity:1" />
<rect y="60" x="160" width="20" height="20"
      style="fill:#008000;fill-opacity:1;stroke:#000000;stroke-width:1;stroke-opacity:1" />
<rect y="60" x="180" width="20" height="20"
      style="fill:#008000;fill-opacity:1;stroke:#000000;stroke-width:1;stroke-opacity:1" />
<rect y="80" x="0" width="20" height="20"
      style="fill:#800000;fill-opacity:1;stroke:#000000;stroke-width:1;stroke-opacity:1" />
<rect y="80" x="20" width="20" height="20"
      style="fill:#008000;fill-opacity:1;stroke:#000000;stroke-width:1;stroke-opacity:1" />
<rect y="80" x="40" width="20" height="20"
      style="fill:#008000;fill-opacity:1;stroke:#000000;stroke-width:1;stroke-opacity:1" />
<rect y="80" x="60" width="20" height="20"
      style="fill:#008000;fill-opacity:1;stroke:#000000;stroke-width:1;stroke-opacity:1" />
<rect y="80" x="80" width="20" height="20"
      style="fill:#008000;fill-opacity:1;stroke:#000000;stroke-width:1;stroke-opacity:1" />
<rect y="80" x="100" width="20" height="20"
      style="fill:#800000;fill-opacity:1;stroke:#000000;stroke-width:1;stroke-opacity:1" />
<rect y="80" x="120" width="20" height="20"
      style="fill:#008000;fill-opacity:1;stroke:#000000;stroke-width:1;stroke-opacity:1" />
<rect y="80" x="140" width="20" height="20"
      style="fill:#800000;fill-opacity:1;stroke:#000000;stroke-width:1;stroke-opacity:1" />
<rect y="80" x="160" width="20" height="20"
      style="fill:#800000;fill-opacity:1;stroke:#000000;stroke-width:1;stroke-opacity:1" />
<rect y="80" x="180" width="20" height="20"
      style="fill:#008000;fill-opacity:1;stroke:#000000;stroke-width:1;stroke-opacity:1" />
<rect y="100" x="0" width="20" height="20"
      style="fill:#008000;fill-opacity:1;stroke:#000000;stroke-width:1;stroke-opacity:1" />
<rect y="100" x="20" width="20" height="20"
      style="fill:#008000;fill-opacity:1;stroke:#000000;stroke-width:1;stroke-opacity:1" />
<rect y="100" x="40" width="20" height="20"
      style="fill:#008000;fill-opacity:1;stroke:#000000;stroke-width:1;stroke-opacity:1" />
<rect y="100" x="60" width="20" height="20"
      style="fill:#800000;fill-opacity:1;stroke:#000000;stroke-width:1;stroke-opacity:1" />
<rect y="100" x="80" width="20" height="20"
      style="fill:#008000;fill-opacity:1;stroke:#000000;stroke-width:1;stroke-opacity:1" />
<rect y="100" x="100" width="20" height="20"
      style="fill:#008000;fill-opacity:1;stroke:#000000;stroke-width:1;stroke-opacity:1" />
<rect y="100" x="120" width="20" height="20"
      style="fill:#008000;fill-opacity:1;stroke:#000000;stroke-width:1;stroke-opacity:1" />
<rect y="100" x="140" width="20" height="20"
      style="fill:#800000;fill-opacity:1;stroke:#000000;stroke-width:1;stroke-opacity:1" />
<rect y="100" x="160" width="20" height="20"
      style="fill:#800000;fill-opacity:1;stroke:#000000;stroke-width:1;stroke-opacity:1" />
<rect y="100" x="180" width="20" height="20"
      style="fill:#800000;fill-opacity:1;stroke:#000000;stroke-width:1;stroke-opacity:1" />
<rect y="120" x="0" width="20" height="20"
      style="fill:#008000;fill-opacity:1;stroke:#000000;stroke-width:1;stroke-opacity:1" />
<rect y="120" x="20" width="20" height="20"
      style="fill:#800000;fill-opacity:1;stroke:#000000;stroke-width:1;stroke-opacity:1" />
<rect y="120" x="40" width="20" height="20"
      style="fill:#008000;fill-opacity:1;stroke:#000000;stroke-width:1;stroke-opacity:1" />
<rect y="120" x="60" width="20" height="20"
      style="fill:#008000;fill-opacity:1;stroke:#000000;stroke-width:1;stroke-opacity:1" />
<rect y="120" x="80" width="20" height="20"
      style="fill:#008000;fill-opacity:1;stroke:#000000;stroke-width:1;stroke-opacity:1" />
<rect y="120" x="100" width="20" height="20"
      style="fill:#008000;fill-opacity:1;stroke:#000000;stroke-width:1;stroke-opacity:1" />
<rect y="120" x="120" width="20" height="20"
      style="fill:#800000;fill-opacity:1;stroke:#000000;stroke-width:1;stroke-opacity:1" />
<rect y="120" x="140" width="20" height="20"
      style="fill:#008000;fill-opacity:1;stroke:#000000;stroke-width:1;stroke-opacity:1" />
<rect y="120" x="160" width="20" height="20"
      style="fill:#800000;fill-opacity:1;stroke:#000000;stroke-width:1;stroke-opacity:1" />
<rect y="120" x="180" width="20" height="20"
      style="fill:#008000;fill-opacity:1;stroke:#000000;stroke-width:1;stroke-opacity:1" />
<rect y="140" x="0" width="20" height="20"
      style="fill:#800000;fill-opacity:1;stroke:#000000;stroke-width:1;stroke-opacity:1" />
<rect y="140" x="20" width="20" height="20"
      style="fill:#800000;fill-opacity:1;stroke:#000000;stroke-width:1;stroke-opacity:1" />
<rect y="140" x="40" width="20" height="20"
      style="fill:#008000;fill-opacity:1;stroke:#000000;stroke-width:1;stroke-opacity:1" />
<rect y="140" x="60" width="20" height="20"
      style="fill:#008000;fill-opacity:1;stroke:#000000;stroke-width:1;stroke-opacity:1" />
<rect y="140" x="80" width="20" height="20"
      style="fill:#008000;fill-opacity:1;stroke:#000000;stroke-width:1;stroke-opacity:1" />
<rect y="140" x="100" width="20" height="20"
      style="fill:#008000;fill-opacity:1;stroke:#000000;stroke-width:1;stroke-opacity:1" />
<rect y="140" x="120" width="20" height="20"
      style="fill:#008000;fill-opacity:1;stroke:#000000;stroke-width:1;stroke-opacity:1" />
<rect y="140" x="140" width="20" height="20"
      style="fill:#800000;fill-opacity:1;stroke:#000000;stroke-width:1;stroke-opacity:1" />
<rect y="140" x="160" width="20" height="20"
      style="fill:#008000;fill-opacity:1;stroke:#000000;stroke-width:1;stroke-opacity:1" />
<rect y="140" x="180" width="20" height="20"
      style="fill:#008000;fill-opacity:1;stroke:#000000;stroke-width:1;stroke-opacity:1" />
<rect y="160" x="0" width="20" height="20"
      style="fill:#008000;fill-opacity:1;stroke:#000000;stroke-width:1;stroke-opacity:1" />
<rect y="160" x="20" width="20" height="20"
      style="fill:#008000;fill-opacity:1;stroke:#000000;stroke-width:1;stroke-opacity:1" />
</svg>
